<svg xmlns="http://www.w3.org/2000/svg" viewBox="0 0 204.32 178.79"><defs><style>.cls-1{fill:#8974ff;}</style></defs><g id="Layer_2" data-name="Layer 2"><g id="Layer_1-2" data-name="Layer 1"><path class="cls-1" d="M166.89,57.94c-2.16-.72-4.31-1.4-6.47-2,.36-1.47.68-2.95,1-4.43,4.91-23.78,1.68-42.9-9.22-49.2-10.49-6-27.61.24-44.93,15.32-1.72,1.48-3.39,3-5,4.59-1.08-1-2.2-2.07-3.31-3.07C80.81,3,62.61-3.8,51.72,2.55,41.26,8.61,38.15,26.61,42.54,49.12c.44,2.23.92,4.43,1.48,6.66-2.56.72-5.07,1.52-7.43,2.36C15.28,65.52,0,77.17,0,89.23c0,12.45,16.28,24.94,38.43,32.52,1.8.6,3.59,1.2,5.43,1.71-.6,2.4-1.12,4.75-1.6,7.19-4.19,22.15-.92,39.7,9.54,45.73,10.77,6.23,28.89-.16,46.53-15.6,1.4-1.24,2.79-2.52,4.19-3.87,1.76,1.71,3.59,3.35,5.43,4.94,17.08,14.69,34,20.64,44.37,14.61,10.78-6.22,14.29-25.1,9.74-48.09-.36-1.75-.76-3.55-1.2-5.38,1.28-.36,2.52-.76,3.75-1.16,23-7.62,39.71-20,39.71-32.6,0-12.1-15.72-23.83-37.43-31.29Zm-54-33.88c14.85-12.93,28.7-18,35-14.37,6.75,3.87,9.34,19.52,5.11,40.07-.28,1.35-.56,2.67-.92,4a204,204,0,0,0-26.85-4.23,202.44,202.44,0,0,0-17-21.19C109.78,26.85,111.3,25.46,112.89,24.06ZM66.72,109.94c2,3.47,4.11,6.94,6.31,10.33a180.34,180.34,0,0,1-18.52-3A186.09,186.09,0,0,1,61,99.52c1.83,3.51,3.71,7,5.7,10.42Zm-12.09-48c5.75-1.28,11.85-2.32,18.2-3.11-2.12,3.31-4.19,6.7-6.15,10.13S62.81,75.82,61,79.33c-2.52-6-4.63-11.77-6.39-17.4ZM65.57,89.42c2.63-5.5,5.5-10.89,8.54-16.2s6.3-10.45,9.73-15.52c6-.44,12.09-.68,18.32-.68s12.37.24,18.32.68q5.08,7.54,9.69,15.44c3.08,5.27,6,10.66,8.66,16.13q-4,8.25-8.62,16.28c-3,5.3-6.26,10.45-9.65,15.56-6,.44-12.13.64-18.4.64s-12.33-.2-18.2-.56q-5.2-7.6-9.81-15.56c-3.08-5.31-5.91-10.7-8.58-16.21Zm72.07,20.44c2-3.51,4-7.07,5.82-10.66a184.88,184.88,0,0,1,6.75,17.68,174.94,174.94,0,0,1-18.76,3.19c2.16-3.35,4.19-6.78,6.19-10.21Zm5.74-30.53c-1.87-3.51-3.79-7-5.78-10.46s-4-6.74-6.11-10.05A180.46,180.46,0,0,1,149.81,62,176.24,176.24,0,0,1,143.38,79.33Zm-41.14-44.9a174.85,174.85,0,0,1,11.81,14.29c-7.9-.36-15.84-.36-23.74,0C94.22,43.57,98.25,38.78,102.24,34.43ZM56,10c6.7-3.91,21.59,1.68,37.27,15.57,1,.87,2,1.83,3,2.79A203.56,203.56,0,0,0,79.13,49.52a210,210,0,0,0-26.81,4.15c-.52-2-1-4.11-1.4-6.19C47.17,28.17,49.64,13.6,56,10ZM46.17,115.16c-1.67-.47-3.31-1-5-1.55-8.5-2.68-18.15-6.91-25.14-12.45a17.94,17.94,0,0,1-7.5-11.93c0-7.31,12.61-16.65,30.81-23,2.27-.8,4.59-1.52,6.9-2.2a211.71,211.71,0,0,0,9.78,25.38A220.77,220.77,0,0,0,46.17,115.16ZM92.7,154.27a72.85,72.85,0,0,1-22.5,14.09,17.72,17.72,0,0,1-14.09.52c-6.35-3.67-9-17.76-5.39-36.72.44-2.23.92-4.46,1.48-6.66a199.31,199.31,0,0,0,27.09,3.91,211.48,211.48,0,0,0,17.24,21.31c-1.27,1.24-2.55,2.44-3.83,3.55Zm9.78-9.69a188.36,188.36,0,0,1-12.09-14.49c3.83.16,7.78.24,11.77.24s8.14-.08,12.13-.28A171.73,171.73,0,0,1,102.48,144.58Zm52.16,12A17.74,17.74,0,0,1,148.05,169c-6.34,3.67-19.87-1.12-34.48-13.65-1.67-1.44-3.35-3-5.06-4.59a198.18,198.18,0,0,0,16.84-21.39,196.41,196.41,0,0,0,27.21-4.19c.4,1.64.76,3.27,1.08,4.87a73,73,0,0,1,1,26.46Zm7.26-42.9c-1.12.36-2.24.72-3.39,1a203.79,203.79,0,0,0-10.18-25.46,203.57,203.57,0,0,0,9.78-25.11c2.07.6,4.07,1.24,6,1.88,18.6,6.38,31.65,15.88,31.65,23.15C195.74,97,181.81,107.06,161.9,113.65Zm-59.74-6A18.28,18.28,0,1,0,83.88,89.39a18.27,18.27,0,0,0,18.28,18.27Z"/></g></g></svg>