<svg xmlns="http://www.w3.org/2000/svg" viewBox="0 0 781.42 279.43"><defs><style>.cls-1{fill:none;stroke:#cbb2fb;stroke-miterlimit:10;stroke-width:4px;}</style></defs><g id="Layer_2" data-name="Layer 2"><g id="Layer_1-2" data-name="Layer 1"><path class="cls-1" d="M501.87,277.43q-4.26,0-8.65-.21c-96.73-4.55-161.84-59-230.77-116.62C199.15,107.67,110.41,25,.41,2L40.23,4.3c103.12,30.64,173.21,89.25,235.05,141,69.15,57.82,128.88,107.76,218.88,112,84.09,4,105.19-57.79,127.54-123.17,10.76-31.48,22.45-63.61,40.53-88.65C691.41,5,745.41,2,745.41,2h36c-32,.11-85.21,31.69-103.23,55.49-16.71,22.06-26.84,51.69-37.56,83-11.52,33.71-23.43,68.57-44.63,94.64C572.92,263.56,542.07,277.43,501.87,277.43Z"/></g></g></svg>