<svg xmlns="http://www.w3.org/2000/svg" viewBox="0 0 154.32 174.06"><defs><style>.cls-1{fill:#8974ff;}</style></defs><g id="Layer_2" data-name="Layer 2"><g id="Layer_1-2" data-name="Layer 1"><path class="cls-1" d="M77.13,174.06a13.5,13.5,0,0,1-6.71-1.8l-21.31-12.6c-3.17-1.8-1.62-2.42-.58-2.77a41.58,41.58,0,0,0,9.63-4.38,1.55,1.55,0,0,1,1.59.13l16.37,9.71a2,2,0,0,0,2,0l63.8-36.82a2,2,0,0,0,1-1.73V50.17a2.05,2.05,0,0,0-1-1.76L78.09,11.62a2,2,0,0,0-2,0L12.4,48.44a2,2,0,0,0-1,1.76v73.6a1.91,1.91,0,0,0,1,1.7l17.48,10.08c9.49,4.73,15.3-.83,15.3-6.46V56.45A1.83,1.83,0,0,1,47,54.62h8.08A1.85,1.85,0,0,1,57,56.45v72.71c0,12.64-6.91,19.89-18.89,19.89-3.7,0-6.6,0-14.68-4L6.7,135.41A13.44,13.44,0,0,1,0,123.77V50.17A13.47,13.47,0,0,1,6.7,38.53L70.42,1.71a14,14,0,0,1,13.41,0l63.79,36.85a13.45,13.45,0,0,1,6.7,11.64v73.6a13.51,13.51,0,0,1-6.7,11.64L83.83,172.26A13.41,13.41,0,0,1,77.13,174.06Zm51.49-72.57c0-13.78-9.32-17.44-28.91-20-19.82-2.62-21.82-4-21.82-8.6,0-3.83,1.69-9,16.37-9,13.09,0,17.92,2.84,19.93,11.68A1.84,1.84,0,0,0,116,77h8.29a1.82,1.82,0,0,0,1.35-.59A1.92,1.92,0,0,0,126.1,75c-1.28-15.24-11.4-22.32-31.84-22.32-18.21,0-29.05,7.67-29.05,20.55,0,14,10.81,17.83,28.25,19.55,20.9,2,22.52,5.12,22.52,9.23,0,7.11-5.73,10.15-19.17,10.15C79.92,112.2,76.23,108,75,99.56A1.82,1.82,0,0,0,73.15,98H64.9a1.82,1.82,0,0,0-1.83,1.83c0,10.75,5.84,23.56,33.78,23.56,20.17,0,31.77-8,31.77-21.9Z"/></g></g></svg>