<svg xmlns="http://www.w3.org/2000/svg" viewBox="0 0 723 732"><defs><style>.cls-1{fill:#8974ff;}.cls-1,.cls-2,.cls-3{stroke:#8974ff;stroke-miterlimit:10;}.cls-1,.cls-2{stroke-width:4px;}.cls-2,.cls-3{fill:none;}.cls-3{stroke-width:3px;}</style></defs><g id="Layer_2" data-name="Layer 2"><g id="Layer_1-2" data-name="Layer 1"><g id="frame"><path class="cls-1" d="M721,59.84V698.16c0,17.58-16.75,31.84-37.41,31.84H65.25c-18.9,0-34.54-11.94-37-27.45A43.62,43.62,0,0,0,39.41,704H657.75c20.65,0,37.4-14.26,37.4-31.84V33.84a25.5,25.5,0,0,0-.36-4.39C710,33.5,721,45.58,721,59.84Z"/><rect class="cls-2" x="2" y="2" width="693.15" height="702" rx="31.84"/><line class="cls-2" x1="695.15" y1="53" x2="2" y2="53"/><ellipse class="cls-3" cx="55.19" cy="27.5" rx="21.47" ry="21.5"/><ellipse class="cls-3" cx="106.61" cy="28" rx="21.47" ry="21.5"/><ellipse class="cls-3" cx="156.53" cy="28" rx="21.47" ry="21.5"/><line class="cls-3" x1="167.48" y1="15.83" x2="144.88" y2="38.46"/><line class="cls-3" x1="167.83" y1="38.81" x2="145.24" y2="16.19"/><line class="cls-3" x1="41.21" y1="28.5" x2="65.17" y2="28.5"/><rect class="cls-3" x="99.12" y="19.5" width="14.98" height="17"/></g></g></g></svg>