<svg xmlns="http://www.w3.org/2000/svg" viewBox="0 0 595.77 1218"><defs><style>.cls-1,.cls-3{fill:#8974ff;}.cls-1,.cls-2,.cls-5{stroke:#8974ff;}.cls-1,.cls-2,.cls-4,.cls-5{stroke-miterlimit:10;}.cls-1,.cls-2,.cls-4{stroke-width:4px;}.cls-2,.cls-4,.cls-5{fill:none;}.cls-4{stroke:#96f;}.cls-5{stroke-width:3px;}</style></defs><g id="Layer_2" data-name="Layer 2"><g id="Layer_1-2" data-name="Layer 1"><g id="frame"><path class="cls-1" d="M593.77,59.84V698.16c0,17.58-11.39,31.84-25.44,31.84H473.65l0-26h77.08c13.76,0,25-13.67,25.42-30.75,0-.36,0-.72,0-1.09V33.84a37.25,37.25,0,0,0-.25-4.39l.18.07C586.37,33.64,593.77,45.66,593.77,59.84Z"/><path class="cls-2" d="M576.19,31.51V672.16c0,.37,0,.73,0,1.09A31.84,31.84,0,0,1,544.35,704H473.77V526.62a13.39,13.39,0,0,1,4.39-9.73A15.7,15.7,0,0,1,488.77,513l-384,1.69V33.84A31.85,31.85,0,0,1,136.61,2H546.68a29.51,29.51,0,0,1,29.44,27.52C576.17,30.18,576.19,30.84,576.19,31.51Z"/><path class="cls-3" d="M517.45,541.51V698.16a32.45,32.45,0,0,1-.23,3.84c-.08.68-.18,1.34-.31,2a31.86,31.86,0,0,1-31.3,26H473.77V526.62a13.39,13.39,0,0,1,4.39-9.73A15.7,15.7,0,0,1,488.77,513l-384,1.69V515H64.36l.3-.14A31.68,31.68,0,0,1,77.87,512H487.94A29.51,29.51,0,0,1,517.45,541.51Z"/><polyline class="cls-4" points="147.79 730 104.77 730 104.77 727"/><path class="cls-4" d="M473.67,704l.09-177c0-.13,0-.25,0-.38l11-13.62-380,2H64.36l.3-.14L33.84,515C16.25,514,2,528.26,2,545.84v638.32A31.84,31.84,0,0,0,33.84,1216H441.58a31.85,31.85,0,0,0,31.84-31.84L473.65,730"/><path class="cls-4" d="M104.77,514.69V515H64.36l.3-.14Z"/><line class="cls-2" x1="576.19" y1="53" x2="104.77" y2="53"/><ellipse class="cls-5" cx="147.68" cy="27.5" rx="21.34" ry="21.5"/><ellipse class="cls-5" cx="198.8" cy="28" rx="21.34" ry="21.5"/><ellipse class="cls-5" cx="248.43" cy="28" rx="21.34" ry="21.5"/><line class="cls-5" x1="259.31" y1="15.83" x2="236.85" y2="38.46"/><line class="cls-5" x1="259.66" y1="38.81" x2="237.2" y2="16.19"/><line class="cls-5" x1="133.79" y1="28.5" x2="157.61" y2="28.5"/><rect class="cls-5" x="191.36" y="19.5" width="14.89" height="17"/><path class="cls-3" d="M516.87,702l27-.2s-11.11,1.13-18-5c-9-8-8.27-22.41-8-22Z"/><polyline class="cls-4" points="196.8 78.56 214.46 96.21 196.77 114"/><line class="cls-4" x1="225.77" y1="96" x2="247.77" y2="96"/><line class="cls-4" x1="518.77" y1="199" x2="133.77" y2="199"/><line class="cls-4" x1="518.77" y1="264" x2="133.77" y2="264"/><line class="cls-4" x1="518.77" y1="321" x2="133.77" y2="321"/><line class="cls-4" x1="518.77" y1="386" x2="133.77" y2="386"/><line class="cls-4" x1="518.77" y1="463" x2="133.77" y2="463"/><line class="cls-4" x1="425.77" y1="605" x2="40.77" y2="605"/><line class="cls-4" x1="425.77" y1="670" x2="40.77" y2="670"/><polyline class="cls-4" points="40.77 727 104.77 727 137.01 727 425.77 727"/><line class="cls-4" x1="425.77" y1="792" x2="40.77" y2="792"/><line class="cls-4" x1="425.77" y1="869" x2="40.77" y2="869"/><line class="cls-4" x1="425.77" y1="945" x2="40.77" y2="945"/><line class="cls-4" x1="425.77" y1="1010" x2="40.77" y2="1010"/><line class="cls-4" x1="425.77" y1="1087" x2="40.77" y2="1087"/><polygon class="cls-1" points="473.77 704 473.77 730 473.65 730 473.67 704 473.77 704"/></g></g></g></svg>