<svg xmlns="http://www.w3.org/2000/svg" width="304.319" height="452.937" viewBox="0 0 304.319 452.937">
  <path id="Path_5" data-name="Path 5" d="M317.273,3047.321c13.486-107.322-46.078-159.288-108.9-175.554S71.147,2856.4,34.059,2764.9s53.046-161.887,53.046-161.887" transform="translate(-19.919 -2595.008)" fill="none" stroke="#a1a0e0" stroke-width="10"/>
  <path id="arrow-pointer" d="M0,36.4v70.32a4.179,4.179,0,0,0,7.32,2.75L22.985,91.548,34,113.6a6.064,6.064,0,0,0,10.848-5.424L34.1,86.617h22.4a4.191,4.191,0,0,0,2.788-7.32L7.32,33.119A4.392,4.392,0,0,0,0,36.4Z" transform="translate(72.009 -32)" fill="#a1a0e0"/>
</svg>
